<?xml version="1.0" encoding="utf-8"?>
<!-- Generator: Adobe Illustrator 16.0.0, SVG Export Plug-In . SVG Version: 6.00 Build 0)  -->
<!DOCTYPE svg PUBLIC "-//W3C//DTD SVG 1.1//EN" "http://www.w3.org/Graphics/SVG/1.1/DTD/svg11.dtd">
<svg version="1.1" xmlns="http://www.w3.org/2000/svg" xmlns:xlink="http://www.w3.org/1999/xlink" x="0px" y="0px" width="1400px"
	 height="980px" viewBox="0 0 1400 980" enable-background="new 0 0 1400 980" xml:space="preserve">
<g id="BACKGROUND">
	<rect x="-4.496" y="-3.5" fill="#3F9DFF" width="1408.5" height="987.5"/>
</g>
<g id="OBJECTS">
	<path fill="#66B6FF" d="M191.789,787.454h1007.949c0,0,151.493-353.052-147.289-359.869
		c-246.694-5.629-293.151-271.479-505.664-271.478C330.142,156.108,95.794,254.86,191.789,787.454z"/>
	<linearGradient id="SVGID_1_" gradientUnits="userSpaceOnUse" x1="703.8984" y1="812" x2="703.8984" y2="591.9182">
		<stop  offset="0" style="stop-color:#3F9DFF"/>
		<stop  offset="1" style="stop-color:#3F9DFF;stop-opacity:0"/>
	</linearGradient>
	<path fill="url(#SVGID_1_)" d="M191.789,787.454h1007.949c0,0,151.493-353.052-147.289-359.869
		c-246.694-5.629-293.151-271.479-505.664-271.478C330.142,156.108,95.794,254.86,191.789,787.454z"/>
	<path opacity="0.51" fill="#66ADD8" d="M563.705,787.454H634V172.911c-21.442-8.696-44.632-14.45-70.295-16.217V787.454z"/>
	<path fill="#78C2F9" d="M454.158,163.088v624.366h145.73V162.076c-16.558-3.849-34.168-5.969-53.103-5.969
		C515.933,156.107,484.723,158.115,454.158,163.088z"/>
	<path opacity="0.51" fill="#66ADD8" d="M1199.738,787.454c0,0,11.436-26.653,21.826-65.451V519.578
		c-8.447-19.028-20.595-36.321-37.514-50.649h-0.018v318.525H1199.738z"/>
	<path opacity="0.4" fill="#78C2F9" d="M1054.106,427.638v359.816h145.632c0,0,0.036-0.082,0.1-0.231v-302.52
		C1172.059,451.983,1126.366,429.611,1054.106,427.638z"/>
	<g>
		<path fill="#9E9E9E" d="M870.249,198.388H679.955c-11.461,0-20.753,9.291-20.753,20.752v259c0,11.461,9.292,20.752,20.753,20.752
			h190.294c11.462,0,20.753-9.291,20.753-20.752v-259C891.002,207.679,881.711,198.388,870.249,198.388z"/>
		<path fill="#FFFFF8" d="M903,219.14v259c0,11.46-9.29,20.75-20.75,20.75h-190.3c-11.46,0-20.75-9.29-20.75-20.75v-259
			c0-11.46,9.29-20.75,20.75-20.75h190.3C893.71,198.39,903,207.68,903,219.14z"/>
		<path opacity="0.68" fill="#C4C4C4" d="M903,445.4v32.74c0,11.46-9.29,20.75-20.75,20.75h-190.3c-11.46,0-20.75-9.29-20.75-20.75
			V445.4H903z"/>
		<path fill="#AADFE8" d="M903,219.14V230H671.2v-10.86c0-11.46,9.29-20.75,20.75-20.75h190.3C893.71,198.39,903,207.68,903,219.14z
			"/>
		<path fill="#2EC0D7" d="M940.002,325.519H683.667v-56h256.335c15.464,0,28,12.536,28,28l0,0
			C968.002,312.982,955.466,325.519,940.002,325.519z"/>
		<g>
			<circle fill="#D39C54" cx="934.197" cy="297.519" r="24.586"/>
			<circle fill="#FFCA7D" cx="934.197" cy="297.519" r="20.583"/>
			<g>
				<path fill="#D39C54" d="M932.166,312.413c-3.565-0.722-5.371-3.476-5.371-7.447v-2.076h4.694v2.392
					c0,1.941,0.992,2.753,2.572,2.753s2.573-0.812,2.573-2.844c0-2.257-0.903-3.882-4.243-6.5c-4.062-3.205-5.461-5.732-5.461-9.162
					c0-3.836,1.76-6.544,5.235-7.312v-2.753h4.062v2.753c3.521,0.722,5.325,3.43,5.325,7.402v0.902h-4.693v-1.218
					c0-1.941-0.903-2.798-2.482-2.798c-1.58,0-2.482,0.857-2.482,2.708c0,2.076,0.902,3.656,4.242,6.319
					c4.062,3.25,5.462,5.732,5.462,9.343c0,4.062-1.851,6.815-5.371,7.538v3.159h-4.062V312.413z"/>
			</g>
		</g>
		<g>
			<text transform="matrix(1 0 0 1 699.4453 313.7944)" fill="#FFFFF8" font-family="'Rubik-Medium'" font-size="44.3001">FINANCE</text>
		</g>
		<circle fill="#FDB638" cx="873.61" cy="218.943" r="6.169"/>
		<circle fill="#7B9A3D" cx="856.932" cy="218.943" r="6.169"/>
		<circle fill="#ED581E" cx="840.253" cy="218.943" r="6.169"/>
		<rect x="687.335" y="213.433" fill="#C4C4C4" width="72.125" height="5.509"/>
		<rect x="791.709" y="342.306" fill="#CCCCCC" width="92.413" height="4.978"/>
		<rect x="791.709" y="360.547" fill="#CCCCCC" width="92.413" height="4.978"/>
		<rect x="791.709" y="378.788" fill="#CCCCCC" width="92.413" height="4.978"/>
		<rect x="683.667" y="397.574" fill="#CCCCCC" width="200.456" height="4.978"/>
		<rect x="683.667" y="415.679" fill="#CCCCCC" width="100.228" height="4.978"/>
		<rect x="683.667" y="335.674" fill="#104892" width="92.578" height="48.091"/>
		<path fill="#AADFE8" d="M875.894,428.186h-79.632c-4.545,0-8.229,4.167-8.229,9.309v8.508h96.09v-8.508
			C884.122,432.353,880.438,428.186,875.894,428.186z"/>
		<path fill="#AADFE8" d="M771.644,428.186h-79.632c-4.544,0-8.229,4.167-8.229,9.309v8.508h96.09v-8.508
			C779.872,432.353,776.188,428.186,771.644,428.186z"/>
		<g>
			<text transform="matrix(1 0 0 1 695.6787 440.6694)" fill="#F6F6F8" font-family="'Rubik-Medium'" font-size="10.124">Insurance</text>
		</g>
		<g>
			<text transform="matrix(1 0 0 1 796.3457 440.6685)" fill="#F6F6F8" font-family="'Rubik-Medium'" font-size="10.124">Income Analytic</text>
		</g>
		<circle fill="#7B9A3D" cx="737.78" cy="471.954" r="14.112"/>
		<rect x="727.463" y="468.929" fill="#F6F6F8" width="20.396" height="5.929"/>
		<rect x="734.696" y="461.695" fill="#F6F6F8" width="5.93" height="20.397"/>
		<circle fill="#ED581E" cx="824.587" cy="471.954" r="14.112"/>
		<rect x="814.271" y="468.929" fill="#F6F6F8" width="20.397" height="5.929"/>
		<rect x="728.816" y="245.388" fill="#C4C4C4" width="109.186" height="10.333"/>
		<path fill="#7B9A3D" d="M766.56,486.066h-65.559c-6.6,0-12-5.4-12-12v-6.293c0-6.6,5.4-12,12-12h65.559c6.601,0,12,5.4,12,12
			v6.293C778.56,480.666,773.16,486.066,766.56,486.066z"/>
		<path fill="#ED581E" d="M868.856,486.066h-65.559c-6.6,0-12-5.4-12-12v-6.293c0-6.6,5.4-12,12-12h65.559c6.601,0,12,5.4,12,12
			v6.293C880.856,480.666,875.457,486.066,868.856,486.066z"/>
	</g>
	<g>
		<path fill="none" stroke="#104892" stroke-miterlimit="10" d="M202.233,671.08c0,0,18.076,64.164,96.725,118.523"/>
		<path fill="#3E9BFF" d="M203.514,674.933c0,0-29.469-22.377-24.396-48.749C179.118,626.184,208.195,652.822,203.514,674.933z"/>
		<path fill="#3E9BFF" d="M214.928,699.519c0,0-20.927-25.832-49.923-21.097C165.005,678.422,188.968,699.284,214.928,699.519z"/>
		<path fill="#104892" d="M230.158,662.607c0,0-24.163,18.954-12.321,41.987C217.837,704.595,238.654,682.249,230.158,662.607z"/>
		<path fill="#104892" d="M182.551,709.49c0,0,22.728-5.847,49.816,16.839C232.367,726.329,207.572,736.068,182.551,709.49z"/>
		<path fill="#3E9BFF" d="M242.646,686.57c0,0-21.489,28.752-3.042,48.973C239.604,735.543,256.17,703.323,242.646,686.57z"/>
		<path fill="#3E9BFF" d="M205.532,737.68c0,0,19.904-7.073,47.171,12.629C252.703,750.309,236.412,761.162,205.532,737.68z"/>
		<path fill="#3E9BFF" d="M256.775,712.716c0,0-17.098,29.824,5.135,47.912C261.91,760.628,275.257,736.276,256.775,712.716z"/>
	</g>
	<g>
		<path fill="#3E9BFF" d="M274.183,589.012c0,0-80.413,52.189,25.896,123.093c0,0,40.395-5.521-5.892-75.353
			C287.038,625.966,274.125,612.262,274.183,589.012z"/>
		<path fill="none" stroke="#104892" stroke-miterlimit="10" d="M300.079,712.104c0,0-6.542-25.343-22.645-45.782
			s-19.039-46.018-3.251-77.311"/>
		<path fill="none" stroke="#104892" stroke-miterlimit="10" d="M315.66,697.017c0,0-7.332-10.186-26.013-11.358"/>
		<path fill="none" stroke="#104892" stroke-miterlimit="10" d="M280.765,697.788c0,0-1.566-13.784,6.204-17.101"/>
		<path fill="none" stroke="#104892" stroke-miterlimit="10" d="M274.292,662.011c0,0,22.229-11.749,36.614,5.085"/>
		<path fill="none" stroke="#104892" stroke-miterlimit="10" d="M263.347,680.88c0,0-3.925-20.403,7.699-24.203"/>
		<path fill="none" stroke="#104892" stroke-miterlimit="10" d="M265.03,640.46c0,0,18.035-16.547,29.157-3.708"/>
		<path fill="none" stroke="#104892" stroke-miterlimit="10" d="M245.913,647.618c0,0,7.38-12.69,18.17-13.126"/>
		<path fill="none" stroke="#104892" stroke-miterlimit="10" d="M264.94,615.327c0,0,7.254-7.937,15.814,0.793"/>
		<path fill="none" stroke="#104892" stroke-miterlimit="10" d="M247.925,621.989c0,0,9.146-14.334,18.188-11.933"/>
	</g>
	<g>
		<path fill="#104892" d="M325.056,793.207c0,0,49.122-118.808-90.73-113.582c0,0-24.627,20.862,23.48,66.961
			C305.913,792.684,309.656,768.584,325.056,793.207z"/>
		<path fill="none" stroke="#3E9BFF" stroke-miterlimit="10" d="M234.326,679.625c0,0,70.373,20.066,92.177,109.648"/>
		<path fill="none" stroke="#3E9BFF" stroke-miterlimit="10" d="M228.174,699.073c0,0,30.032,10.862,37.506-3.135"/>
		<path fill="none" stroke="#3E9BFF" stroke-miterlimit="10" d="M289.956,717.662c0,0-34.647,26.289-49.807,9.058"/>
		<path fill="none" stroke="#3E9BFF" stroke-miterlimit="10" d="M314.022,753.944c0,0-25.178,19.784-39.254,7.577"/>
		<path fill="none" stroke="#618946" stroke-miterlimit="10" d="M323.38,711.39c0,0,3.565,19.98-12.52,36.338"/>
		<path fill="none" stroke="#3E9BFF" stroke-miterlimit="10" d="M293.316,687.646c0,0,9.499,21.339,0.647,33.799"/>
		<path fill="none" stroke="#3E9BFF" stroke-miterlimit="10" d="M267.631,681.063c0,0,10.175,10.174,2.598,18.244"/>
	</g>
	<g>
		<path fill="#104892" d="M320.785,789.215c0,0-13.56,2.156-35.321,14.593c-19.224,10.986-73.309,6.795-116.008-20.265
			c0,0,41.732-70.177,123.822-11.809C299.918,776.456,309.494,788.102,320.785,789.215z"/>
		<path fill="none" stroke="#3E9BFF" stroke-miterlimit="10" d="M172.866,783.368c0,0,76.041-8.026,142.936,5.18"/>
		<path fill="none" stroke="#3E9BFF" stroke-miterlimit="10" d="M183.629,770.36c0,0,13.212,4.771,21.062,10.999"/>
		<path fill="none" stroke="#3E9BFF" stroke-miterlimit="10" d="M193.791,762.011c0,0,23.938,10.976,32.448,18.623"/>
		<path fill="none" stroke="#3E9BFF" stroke-miterlimit="10" d="M211.492,753.188c0,0,26.757,11.574,34.356,28.042"/>
		<path fill="none" stroke="#3E9BFF" stroke-miterlimit="10" d="M235.005,750.003c0,0,27.659,17.986,26.304,31.917"/>
		<path fill="none" stroke="#3E9BFF" stroke-miterlimit="10" d="M258.957,754.832c0,0,18.85,7.512,21.342,28.577"/>
		<path fill="none" stroke="#3E9BFF" stroke-miterlimit="10" d="M286.817,769.131c0,0,7.209,5.769,6.92,15.822"/>
		<path fill="none" stroke="#3E9BFF" stroke-miterlimit="10" d="M189.271,792.377c0,0,10.848-4.881,13.748-10.955"/>
		<path fill="none" stroke="#3E9BFF" stroke-miterlimit="10" d="M213.26,801.517c0,0,11.465-10.335,11.551-20.559"/>
		<path fill="none" stroke="#3E9BFF" stroke-miterlimit="10" d="M228.597,805.293c0,0,14.343-11.701,15.619-24.11"/>
		<path fill="none" stroke="#3E9BFF" stroke-miterlimit="10" d="M252.097,808.048c0,0,9.8-15.976,7.918-26.202"/>
		<path fill="none" stroke="#3E9BFF" stroke-miterlimit="10" d="M263.873,807.796c0,0,13.761-12.146,14.821-24.542"/>
		<path fill="none" stroke="#3E9BFF" stroke-miterlimit="10" d="M283.656,802.722c0,0,7.085-5.745,8.701-17.948"/>
	</g>
	<g>
		<rect x="294.819" y="499.532" fill="#75ADFF" width="200.798" height="12.905"/>
		<rect x="305.5" y="512.438" fill="#3382FD" width="179.437" height="301.108"/>
		<rect x="314.044" y="526.776" fill="#7AAFFF" width="162.348" height="160.297"/>
		<rect x="314.044" y="694.735" fill="#7AAFFF" width="162.348" height="109.188"/>
		<line fill="none" stroke="#3382FD" stroke-miterlimit="10" x1="476.392" y1="579.281" x2="314.044" y2="579.281"/>
		<line fill="none" stroke="#3382FD" stroke-miterlimit="10" x1="476.392" y1="633.397" x2="314.044" y2="633.397"/>
		<ellipse fill="#BDD6FF" cx="397.354" cy="557.475" rx="10.147" ry="4.54"/>
		<ellipse fill="#BDD6FF" cx="397.354" cy="609.544" rx="10.147" ry="4.539"/>
		<ellipse fill="#BDD6FF" cx="397.354" cy="663.748" rx="10.147" ry="4.54"/>
		<path fill="#BDD6FF" d="M476.173,733.004L476.173,733.004c-2.841,0-5.145-2.304-5.145-5.146v-15.261
			c0-2.841,2.304-5.145,5.145-5.145l0,0V733.004z"/>
		<path fill="#BDD6FF" d="M476.173,779.525L476.173,779.525c-2.841,0-5.145-2.304-5.145-5.146v-15.261
			c0-2.842,2.304-5.146,5.145-5.146l0,0V779.525z"/>
		<path fill="#BDD6FF" d="M325.108,765.824L325.108,765.824c-2.508,0-4.542-2.034-4.542-4.542v-34.556
			c0-2.509,2.034-4.542,4.542-4.542l0,0c2.508,0,4.542,2.033,4.542,4.542v34.556C329.65,763.79,327.616,765.824,325.108,765.824z"/>
	</g>
	<g>
		<rect x="878.966" y="686.45" fill="#FFCA7D" width="15.522" height="116.051"/>
		<path fill="#B27C3B" d="M871.91,696.797h29.634c6.512,0,11.791-5.279,11.791-11.791v-10.475h-53.216v10.475
			C860.119,691.518,865.398,696.797,871.91,696.797z"/>
		<rect x="873.438" y="690.607" fill="#B27C3B" width="26.579" height="26.579"/>
		<path fill="#B27C3B" d="M834.397,819.132h104.659v-1.739c0-8.836-7.163-16-16-16h-72.659c-8.837,0-16,7.164-16,16V819.132z"/>
		<rect x="986.172" y="487.177" fill="#CE562C" width="11.422" height="32.056"/>
		<rect x="964.429" y="487.177" fill="#CE562C" width="11.421" height="32.056"/>
		<path fill="#D39C54" d="M943.536,463.227h79.106c6.149,0,11.135,4.985,11.135,11.135v9.983c0,6.149-4.985,11.134-11.135,11.134
			h-79.106c-6.149,0-11.135-4.985-11.135-11.134v-9.983C932.401,468.212,937.387,463.227,943.536,463.227z"/>
		<path fill="#FFCA7D" d="M932.401,484.345v-9.983c0-6.149,4.985-11.135,11.135-11.135h66.68c6.149,0,11.135,4.985,11.135,11.135
			v9.983c0,6.149-4.985,11.134-11.135,11.134h-66.68C937.387,495.479,932.401,490.495,932.401,484.345z"/>
		<path fill="#D39C54" d="M923.496,644.597h75.75c6.173,0,11.442-4.459,12.463-10.547l19.6-116.915
			c1.292-7.706-4.649-14.726-12.462-14.726h-75.751c-6.173,0-11.441,4.459-12.462,10.547l-19.601,116.916
			C909.742,637.577,915.683,644.597,923.496,644.597z"/>
		<path fill="#FFCA7D" d="M911.033,629.872l19.601-116.916c1.021-6.088,6.289-10.547,12.462-10.547h62.62
			c7.813,0,13.754,7.02,12.462,14.725l-19.6,116.916c-1.021,6.088-6.289,10.547-12.462,10.547h-62.621
			C915.683,644.597,909.742,637.577,911.033,629.872z"/>
		<path fill="#D39C54" d="M821.453,677.231h182.116c8.166,0,14.786-6.619,14.786-14.785v-3.135c0-8.166-6.62-14.786-14.786-14.786
			H821.453c-8.166,0-14.785,6.62-14.785,14.786v3.135C806.668,670.612,813.287,677.231,821.453,677.231z"/>
		<path fill="#EFB86F" d="M806.667,660.879c0-9.031,9.78-16.354,21.843-16.354h136.904c12.063,0,21.843,7.322,21.843,16.354
			s-9.779,16.353-21.843,16.353H828.51C816.447,677.231,806.667,669.91,806.667,660.879z"/>
	</g>
	<g>
		<path fill="#421609" d="M521.532,495.987l10.412,79.658l7.739,59.237c0.086,0.68,0.144,1.365,0.149,2.046
			c0.239,9.392-6.468,17.713-15.932,19.332c-9.719,1.666-19.096-4.304-21.723-13.803l-0.529-1.913l-42.824-102.838
			c-5.322-12.781-5.611-27.102-0.81-40.086l4.15-11.223L521.532,495.987z"/>
		<path fill="#421609" d="M532.335,629.906c5.284,3.282,8.889,9.142,8.917,15.971l0.447,139.913l0.071,22.132l-12.9,0.364
			l-3.934-24.946l-19.955-126.548l-1.248-7.913c-0.357-2.295-0.296-4.558,0.14-6.705c1.5-7.394,7.383-13.461,15.257-14.832
			C523.927,626.503,528.561,627.546,532.335,629.906z"/>
		<polygon fill="#1D3B70" points="541.461,805.327 556.952,814.988 527.736,814.495 528.682,808.182 		"/>
		<path fill="#421609" d="M447.872,668.969c-9.701-1.721-16.511-10.529-15.755-20.352l0.159-2.024l3.738-48.318l-5.716-57.022
			c-2.177-21.717,18.283-38.756,39.247-32.686l30.441,8.814l-6.001,27.34l-24.021,109.49c-0.508,2.352-1.441,4.508-2.689,6.404
			C463.186,666.845,455.639,670.349,447.872,668.969z"/>
		<path fill="#421609" d="M425.838,813.452l-12.517-3.163l2.654-22.392l16.353-137.86c0.068-0.589,0.165-1.172,0.302-1.726
			c0.544-2.64,1.649-5.043,3.158-7.123c3.822-5.271,10.273-8.419,17.205-7.702c10.644,1.09,18.034,10.68,16.845,20.925
			c-0.108,0.964-0.304,1.942-0.573,2.914l-37.873,136.15L425.838,813.452z"/>
		<polygon fill="#1D3B70" points="426.069,807.917 441.07,818.322 411.914,816.405 413.166,810.145 		"/>
		<path fill="#1D3B70" d="M607.084,461.511l-92.318-44.068c-13.017-6.213-17.665-22.415-9.921-34.584v0
			c7.555-11.874,23.652-14.742,34.843-6.208l81.344,62.029c5.582,4.256,6.951,12.089,3.145,17.987l0,0
			C620.508,462.351,613.189,464.425,607.084,461.511z"/>
		<path fill="#1D3B70" d="M699.415,403.69l-78.482,56.624c-6.087,4.392-14.601,2.868-18.786-3.363l0,0
			c-4.389-6.533-2.162-15.427,4.786-19.123l85.56-45.501L699.415,403.69z"/>
		<path fill="#224182" d="M409.146,382.666c0.73,23.203,4.13,84.546,19.971,154.113c0,0,28.65,9.923,47.426,9.312
			c21.905-0.714,50.545-11.045,50.545-11.045c10.072-50.553,11.758-113.591,11.895-145.653c0.049-11.385-9.369-20.526-20.749-20.155
			l-99.525,3.243C413.255,372.658,408.975,377.211,409.146,382.666z"/>
		<path fill="#EAEAEA" d="M482.117,446.779c0,0,20.75-53.25,8.25-76.625c0,0-0.026-0.005-0.04-0.008l-36.17,1.178l0,0
			C454.158,371.325,470.617,440.029,482.117,446.779z"/>
		<path fill="#ED581E" d="M476.742,393.982l9.581-0.731l-3.949,8.278C482.374,401.529,477.742,398.436,476.742,393.982z"/>
		<polyline fill="#ED581E" points="481.48,399.529 473.965,437.154 482.117,446.779 488.987,436.779 482.374,399.154 		"/>
		<polygon fill="#EFABC3" points="482.374,393.982 460.271,371.691 464.808,350.199 488.987,355.304 		"/>
		<path fill="#FEB3CA" d="M501.93,336.409c0.425,12.525-3.012,31.329-13.15,29.188c-10.139-2.14-30.182-16.994-27.545-29.482
			c2.636-12.488,12.993-20.876,23.131-18.736C494.504,319.52,501.496,323.653,501.93,336.409z"/>
		<path fill="#FFFFFF" d="M488.987,355.779l8.937-0.284c0,0-1.184,3.452-2.76,3.545
			C493.588,359.134,489.376,357.492,488.987,355.779z"/>
		<path fill="#224182" d="M396.679,488.409l39.221-82.2c5.968-13.131-0.896-28.525-14.653-32.86l0,0
			c-13.423-4.23-27.592,3.93-30.669,17.663l-19.265,88.891c-1.535,6.85,2.456,13.728,9.164,15.794l0,0
			C386.942,497.688,393.88,494.567,396.679,488.409z"/>
		<path fill="#FEB3CA" d="M497.654,338.705c0,0,2.001,6.309,7.638,12.044c0,0-7.904,3.706-8.863,1.063
			S497.654,338.705,497.654,338.705z"/>
		<path fill="#FEB3CA" d="M692.285,392.875c0,0-1.523-10.355,2.163-10.422c3.028-0.055,3.968,4.728,3.968,4.728
			s16.118-5.766,16.624,0.39c0.505,6.155-4.999,16.996-16.812,17.209L692.285,392.875z"/>
		<path fill="#223F83" d="M503.81,329.281c0,0,6.837,12.125-20.663,12.125c0,0-5.403,8.793-20.323,18.194
			c0,0-14.271-20.372-8.666-32.319C454.158,327.281,474.629,289.781,503.81,329.281z"/>
		<path fill="#FEB3CA" d="M478.865,343.38c0,0-3.821-9.156-7.82-4.734c-3.998,4.421,1.6,15.058,5.27,15.381L478.865,343.38z"/>
		<path fill="#1D3B70" d="M482.117,446.779c0,0-19.959-47.455-27.959-75.455c0,0-9.224-1.922-16.132,0.766
			c0,0,1.092,11.688,11.092,21.688l-7,10C442.117,403.779,458.117,427.779,482.117,446.779z"/>
		<path fill="#1D3B70" d="M482.117,446.779c0,0,15.02-47.188,7.01-76.594c0,0,5.74-2.172,14.683-0.479
			c0,0,2.308,13.072-3.692,21.072l9,6C509.117,396.779,503.117,426.779,482.117,446.779z"/>
		<path fill="#FFFFFF" d="M482.374,393.982c0,0-10.132-0.453-13.507,5.172c0,0-11.169-9.534-14.709-27.83
			c0,0,0.471-5.695,7.153-4.558L482.374,393.982z"/>
		<path fill="#FFFFFF" d="M489.127,370.186c0,0,5.246,15.469,1.838,25.719c0,0-3.459-4.468-8.591-1.922l4.504-26.348
			C486.878,367.635,488.512,368.467,489.127,370.186z"/>
		<g>
			<path fill="#FFCA79" d="M505.417,449.84l-65.826-14.033c-2.657-0.566-5.269,1.128-5.835,3.785l-20.962,98.334
				c-0.566,2.656,1.128,5.269,3.785,5.835l65.826,14.032c2.656,0.566,5.269-1.128,5.835-3.784l20.962-98.334
				C509.768,453.019,508.073,450.406,505.417,449.84z"/>
			<path fill="#EAEAEA" d="M503.768,449.488l-65.826-14.033c-2.656-0.566-5.269,1.128-5.835,3.785l-20.963,98.334
				c-0.566,2.656,1.128,5.269,3.785,5.835l65.826,14.032c2.656,0.566,5.269-1.128,5.835-3.784l20.962-98.334
				C508.119,452.667,506.424,450.055,503.768,449.488z"/>
			<path fill="#FFCA79" d="M500.676,448.829l-65.826-14.033c-2.657-0.566-5.269,1.128-5.835,3.785l-20.962,98.334
				c-0.566,2.656,1.128,5.269,3.785,5.835l65.826,14.032c2.657,0.566,5.269-1.128,5.835-3.784l20.962-98.334
				C505.026,452.008,503.332,449.396,500.676,448.829z"/>
			
				<rect x="425.488" y="434.558" transform="matrix(-0.978 -0.2085 0.2085 -0.978 744.3091 1057.95)" fill="#FFEED7" width="4.848" height="110.379"/>
			<path fill="#B58A52" d="M439.315,435.749l-4.466-0.952c-2.657-0.566-5.269,1.128-5.835,3.785l-20.962,98.334
				c-0.566,2.656,1.128,5.269,3.785,5.835l4.466,0.952L439.315,435.749z"/>
			<g>
				<text transform="matrix(0.978 0.2085 -0.2085 0.978 443.4341 455.7725)"><tspan x="0" y="0" fill="#FFFFF8" font-family="'Rubik-Bold'" font-size="10.1169">FINANCE</tspan><tspan x="0" y="12.14" fill="#FFFFF8" font-family="'Rubik-Bold'" font-size="10.1169">ANALYTIC</tspan></text>
			</g>
		</g>
		<path fill="#224182" d="M480.75,498.869l-92.501-28.448c-7.174-2.207-14.749,1.969-16.714,9.213l0,0
			c-2.061,7.596,2.902,15.305,10.669,16.576l95.636,15.644L480.75,498.869z"/>
		<path fill="#FEB3CA" d="M480.75,498.869c0,0,5.359-8.99,8.259-6.714c2.383,1.87,0.091,6.172,0.091,6.172
			s13.128,6.366,10.885,12.12c-3.764,9.654-12.852,8.701-22.145,1.406L480.75,498.869z"/>
	</g>
	<g>
		<polygon fill="#22273F" points="802.308,797.34 791.709,810.607 817.183,801.136 814.399,795.89 		"/>
		<path fill="#104892" d="M911.292,386.637c0,0,25.37-1.484,37.37,34.183c12,35.667,52.667,12,58,53
			c5.333,41-54.333,66-82.333,51.333s-64.729-92.365-41.698-129.016L911.292,386.637z"/>
		<path fill="#E29FB5" d="M802.305,797.347l11.938-1.341l0.616-34.923l2.039-115.16c0.051-3.322-0.806-6.447-2.368-9.131
			c-2.941-5.054-8.337-8.513-14.592-8.721c-10.878-0.375-19.462,9.132-17.996,19.915l15.562,114.147L802.305,797.347z"/>
		<path fill="#E29FB5" d="M783.389,652.548L783.389,652.548c-3.971-8.712-0.353-19.005,8.195-23.316l132.444-68.606l29.598,46.454
			l-148.259,54.954C796.692,664.988,787.189,660.888,783.389,652.548z"/>
		<path fill="#FBB3C9" d="M839.74,645.5c-1.423-0.7-2.96-1.225-4.595-1.522c-10.699-1.947-20.584,6.193-20.711,17.078
			l-1.134,100.403l-0.561,50.321l11.996,0.429l7.911-47.66l16.667-100.422C850.612,656.309,846.525,648.838,839.74,645.5z"/>
		<path fill="#FBB3C9" d="M823.257,664.959L823.257,664.959c-4.496-8.452-1.516-18.947,6.753-23.775l123.983-74.369l11.421,16.521
			l0.678,7.236c1.812,19.345-9.284,37.586-27.296,44.874l-93.021,37.635C837.298,676.562,827.562,673.051,823.257,664.959z"/>
		<path fill="#46C1D1" d="M877.557,566.713l20.77-92.855c2.929-13.093-6.257-25.797-19.607-27.12l0,0
			c-13.026-1.291-24.369,8.841-24.551,21.93l-1.326,95.14c-0.091,6.528,4.854,12.028,11.354,12.63l0,0
			C870.462,577.018,876.183,572.854,877.557,566.713z"/>
		<path fill="#F4A484" d="M776.244,573.267c0,0-5.792,6.732-9.942,6.754c-4.151,0.021,0.106-5.649,0.106-5.649
			s-15.949,3.274-15.876-4.002s14.691-10.896,24.533-7.601L776.244,573.267z"/>
		
			<rect x="896.378" y="425.392" transform="matrix(-0.9995 -0.031 0.031 -0.9995 1801.783 899.1821)" fill="#EFABC1" width="22.985" height="20.431"/>
		<path fill="#46C1D1" d="M774.681,575.499l90.001,1.604c6.979,0.125,12.675-5.559,12.565-12.538l0,0
			c-0.114-7.319-6.535-12.933-13.805-12.068l-89.505,10.648L774.681,575.499z"/>
		<path fill="#FBB3C9" d="M889.166,405.114c-3.144,11.225-0.307,29.887,5.454,29.274c5.009-0.533,27.711-6.272,28.079-18.138
			s-3.835-24.164-13.469-24.463S892.367,393.682,889.166,405.114z"/>
		<path fill="#FFFFFF" d="M897.475,424.695l-7.233,0.339c0,0,1.175,2.711,2.453,2.687
			C893.974,427.695,897.27,426.103,897.475,424.695z"/>
		<path fill="#203F82" d="M831.146,608.737c0,0,43.87,5.75,56.567,47.375l52.232-19.854c18.126-6.891,29.097-25.38,26.457-44.59
			l-1.322-9.631l-89.771,1.02C875.311,583.057,841.662,595.486,831.146,608.737z"/>
		<path fill="#4DCBE2" d="M951.834,534.194l13.023-67.266c2.887-14.908-9.248-28.457-24.383-27.226l-65.443,5.738
			c-8.857,0.777-16.078,7.462-17.483,16.242c-1.271,7.943-2.263,16.725-1.131,19.98c-11.63,32.323,16.318,43.072,17.384,43.155
			c8.31,19.338,10.021,27.168,10.021,27.168l-8.511,31.07c0,0,13.068,8.968,33.358,10.945c26.956,2.626,56.412-11.965,56.412-11.965
			L951.834,534.194z"/>
		<path fill="#F1FFFF" d="M884.052,444.65L884.052,444.65c-10.609,26.414,3.662,60.17,3.662,60.17l9.761,9.416l9.761-10.647
			c3.903-29.608,23.432-60.628,25.057-63.168L884.052,444.65z"/>
		<path fill="#DDEDED" d="M915.049,474.774c5.626-14.498,12.517-26.582,15.655-31.784l-47.58,4.172
			c-3.021,8.926-3.42,18.518-2.648,27.271C884.605,476.087,896.711,479.692,915.049,474.774z"/>
		<path fill="#EFABC1" d="M916.064,472.213c6.901-17.009,15.192-30.175,16.228-31.793l-48.24,4.229l0,0
			c-3.473,8.646-4.271,18.076-3.785,26.854C883.03,472.777,895.743,477.725,916.064,472.213z"/>
		<polygon fill="#22273F" points="812.734,811.777 800.31,823.352 826.895,817.708 824.909,812.111 		"/>
		<path fill="#50DBEA" d="M990.157,552.189l-17.066-93.606c-2.407-13.199-15.817-21.318-28.628-17.332l0,0
			c-12.5,3.889-18.996,17.64-14.062,29.765l35.864,88.131c2.461,6.048,9.158,9.186,15.38,7.205l0,0
			C987.641,564.444,991.286,558.379,990.157,552.189z"/>
		<path fill="#FBB3C9" d="M887.714,572.597l-9.989,4.577c0,0-15.374,1.806-15.87-5.455c-0.497-7.26,13.793-12.012,23.863-9.496
			L887.714,572.597z"/>
		<path fill="#50DBEA" d="M886.832,574.017l89.759-6.788c6.962-0.527,12.103-6.716,11.343-13.655l0,0
			c-0.796-7.276-7.712-12.267-14.868-10.729l-88.124,18.941L886.832,574.017z"/>
		<path fill="#FBB3C9" d="M890.507,414.254c0,0-1.466,6.106-6.455,7.792c0,0,3.322,2.747,6.718,1.215
			C893.034,422.239,890.507,414.254,890.507,414.254z"/>
		<path fill="#104892" d="M881.329,410.237l28.108-0.5c0,0-0.335,28.434,10.028,31.675c0,0,24.29-38.292-8.174-54.775
			c0,0-21.692-2.516-28.661,9.5L881.329,410.237z"/>
		<path fill="#3297A5" d="M929.46,440.233c0,0-33.46,43.855-31.985,74.003c0,0,18.312-14.625,25.735-39.5c0,0,2.5-8.5,0.5-12
			l10.563-4.73c0,0,4.062-13.337,3.999-18.303C938.272,439.703,934.71,437.479,929.46,440.233z"/>
		<path fill="#3297A5" d="M897.475,514.236c0,0-18.746-50.618-9.761-69.907c0,0-3.769-1.575-8.077,0.708
			c0,0-6.475,9.116-7.975,17.116c0,0,2.34,3.667,5.587,4.667c0,0-1.835,1.741-2.471,8.167
			C874.316,479.643,879.537,503.589,897.475,514.236z"/>
	</g>
	<g>
		<g>
			<g>
				<polygon fill="#E5E5E5" points="671.766,827.4 647.443,827.4 732.461,755.564 648.045,600.347 661.834,592.847 752.362,759.3 
									"/>
			</g>
		</g>
		<g>
			<g>
				<polygon fill="#E5E5E5" points="947.964,827.4 867.367,759.3 957.896,592.847 971.686,600.347 887.269,755.564 972.286,827.4 
									"/>
			</g>
		</g>
		<path fill="#FFFFFF" d="M616.054,605.133h401.724c8.836,0,16-7.163,16-16v-6.705H600.054v6.705
			C600.054,597.97,607.217,605.133,616.054,605.133z"/>
		<path fill="#FFFFFF" d="M902.674,769.293H720.171c-7.288,0-13.196-5.908-13.196-13.196v-1.228c0-7.288,5.908-13.195,13.196-13.195
			h182.503c7.288,0,13.196,5.907,13.196,13.195v1.228C915.87,763.385,909.962,769.293,902.674,769.293z"/>
	</g>
	<g>
		<rect x="788.032" y="574.12" fill="#A0A0A0" width="90.352" height="8.049"/>
		<path fill="#A0A0A0" d="M831.156,582.169H720.908l-21.268-60.1c-1.55-4.38,1.699-8.976,6.345-8.976h100.727L831.156,582.169z"/>
		<path fill="#C4C4C4" d="M705.985,513.094c-4.646,0-7.895,4.596-6.345,8.976l21.268,60.1H821.68l-24.445-69.075H705.985z"/>
		
			<ellipse transform="matrix(0.9721 -0.2344 0.2344 0.9721 -108.0349 192.3796)" fill="#FFFFFF" cx="755.25" cy="550.651" rx="6.326" ry="7.8"/>
	</g>
	<g>
		<line fill="none" stroke="#104892" stroke-miterlimit="10" x1="1107.839" y1="669.911" x2="1108.722" y2="755.931"/>
		<path fill="none" stroke="#104892" stroke-miterlimit="10" d="M1134.515,689.251c0,0-26.588,3.595-26.234,30.847"/>
		<path fill="none" stroke="#104892" stroke-miterlimit="10" d="M1086.305,698.818c0,0,20.906,1.158,21.534,16.712"/>
		<path fill="none" stroke="#104892" stroke-miterlimit="10" d="M1134.092,715.53c0,0-21.787-1.494-25.535,22.815"/>
		<path fill="none" stroke="#104892" stroke-miterlimit="10" d="M1078.339,719.434c0,0,30.233,2.852,30.383,17.433"/>
		<path fill="none" stroke="#104892" stroke-miterlimit="10" d="M1107.839,702.167c0,0,7.303-26.68,22.841-38.157"/>
		<g>
			<path fill="#104892" d="M1117.699,679.264c0,0,39.496-7.969,33.502-37.022C1151.201,642.241,1108.552,636.591,1117.699,679.264z"
				/>
			<path fill="none" stroke="#3E9BFF" stroke-miterlimit="10" d="M1151.201,642.241c0,0-21.072,8.59-33.502,37.022"/>
			<path fill="none" stroke="#3E9BFF" stroke-miterlimit="10" d="M1141.507,642.241c0,0-1.716,4.285-1.462,7.086"/>
			<path fill="none" stroke="#3E9BFF" stroke-miterlimit="10" d="M1134.515,643.547c0,0-3.351,6.452-0.397,11.148"/>
			<path fill="none" stroke="#3E9BFF" stroke-miterlimit="10" d="M1127.112,646.741c0,0-2.56,11.719,0,16.152"/>
			<path fill="none" stroke="#3E9BFF" stroke-miterlimit="10" d="M1121.112,652.167c0,0-1.403,14.545,1.358,17.744"/>
			<path fill="none" stroke="#3E9BFF" stroke-miterlimit="10" d="M1121.324,671.916c0,0,5.011,3.078,13.809,0.656"/>
			<path fill="none" stroke="#3E9BFF" stroke-miterlimit="10" d="M1126.544,663.673c0,0,8.454,3.719,17.291,2.476"/>
			<path fill="none" stroke="#3E9BFF" stroke-miterlimit="10" d="M1132.9,655.957c0,0,10.758,3.746,16.879,1.841"/>
			<path fill="none" stroke="#3E9BFF" stroke-miterlimit="10" d="M1138.997,650.188c0,0,7.612,3.567,12.662,0.736"/>
		</g>
		<g>
			<path fill="#3E9BFF" d="M1107.839,697.927c0,0-2.668-8.461-12.685-21.185c-8.85-11.24-11.314-46.203,1.917-76.062
				c0,0,48.816,19.995,19.322,78.006C1114.008,683.378,1107.477,690.605,1107.839,697.927z"/>
			<path fill="none" stroke="#104892" stroke-miterlimit="10" d="M1097.508,602.842c0,0,12.36,47.83,10.283,91.837"/>
			<path fill="none" stroke="#104892" stroke-miterlimit="10" d="M1106.844,608.483c0,0-1.792,8.896-5.026,14.505"/>
			<path fill="none" stroke="#104892" stroke-miterlimit="10" d="M1113.146,614.183c0,0-4.738,16.342-8.815,22.508"/>
			<path fill="none" stroke="#104892" stroke-miterlimit="10" d="M1120.468,624.656c0,0-4.853,18.199-14.653,24.622"/>
			<path fill="none" stroke="#104892" stroke-miterlimit="10" d="M1124.739,639.379c0,0-8.864,19.386-17.896,19.846"/>
			<path fill="none" stroke="#104892" stroke-miterlimit="10" d="M1123.932,655.146c0,0-3.008,12.76-16.233,16.356"/>
			<path fill="none" stroke="#104892" stroke-miterlimit="10" d="M1117.443,674.309c0,0-3.001,5.156-9.453,5.928"/>
			<path fill="none" stroke="#104892" stroke-miterlimit="10" d="M1093.311,614.183c0,0,4.15,6.468,8.309,7.743"/>
			<path fill="none" stroke="#104892" stroke-miterlimit="10" d="M1089.752,630.382c0,0,7.694,6.345,14.236,5.427"/>
			<path fill="none" stroke="#104892" stroke-miterlimit="10" d="M1088.797,640.543c0,0,8.842,8.053,16.893,7.688"/>
			<path fill="none" stroke="#104892" stroke-miterlimit="10" d="M1089.271,655.822c0,0,11.142,4.743,17.498,2.568"/>
			<path fill="none" stroke="#104892" stroke-miterlimit="10" d="M1090.552,663.323c0,0,9.07,7.64,17.093,7.138"/>
			<path fill="none" stroke="#104892" stroke-miterlimit="10" d="M1095.676,675.483c0,0,4.346,3.982,12.297,3.854"/>
		</g>
		<path fill="none" stroke="#104892" stroke-miterlimit="10" d="M1081.452,668.672c0,0,19.328,8.851,27.104,31.14"/>
		<g>
			<path fill="#3E9BFF" d="M1122.124,693.92c0,0,12.794-31.57,53.415-3.593c0,0-22.328,14.215-37.662,8.491
				C1134.014,697.376,1130.852,692.805,1122.124,693.92z"/>
			<path fill="none" stroke="#104892" stroke-miterlimit="10" d="M1175.539,690.327c0,0-32.447-11.512-53.415,3.593"/>
			<path fill="none" stroke="#104892" stroke-miterlimit="10" d="M1168.937,693.92c0,0,0.322-4.105-5.348-6.539"/>
			<path fill="none" stroke="#104892" stroke-miterlimit="10" d="M1163.589,696.279c0,0-1.837-6.363-12.093-10.125"/>
			<path fill="none" stroke="#104892" stroke-miterlimit="10" d="M1153.716,699.319c0,0-1.681-8.73-9.634-13.165"/>
			<path fill="none" stroke="#104892" stroke-miterlimit="10" d="M1146.082,700.172c0,0-0.32-10.344-8.782-12.791"/>
			<path fill="none" stroke="#104892" stroke-miterlimit="10" d="M1136.774,698.315c0,0-0.106-5.635-7.774-8.291"/>
			<path fill="none" stroke="#104892" stroke-miterlimit="10" d="M1129.962,689.469c0,0,2.912-3.101,2.926-7.443"/>
			<path fill="none" stroke="#104892" stroke-miterlimit="10" d="M1138.517,687.133c0,0,2.979-4.048,2.246-7.959"/>
			<path fill="none" stroke="#104892" stroke-miterlimit="10" d="M1146.082,686.229c0,0,1.839-3.326,2.13-7.348"/>
			<path fill="none" stroke="#104892" stroke-miterlimit="10" d="M1152.637,686.13c0,0,4.643-2.061,4.424-5.388"/>
			<path fill="none" stroke="#104892" stroke-miterlimit="10" d="M1162.095,687.133c0,0,2.428-0.562,4.17-2.45"/>
		</g>
		<g>
			<path fill="#3E9BFF" d="M1093.53,676.701c0,0-7.059-31.501-41.896-6.242c0,0-2.988,13.399,24.48,6.966
				C1080.357,676.431,1086.196,673.959,1093.53,676.701z"/>
			<path fill="none" stroke="#104892" stroke-miterlimit="10" d="M1051.635,670.459c0,0,8.767,0.903,17.106-1.787
				c8.339-2.69,16.759-0.621,24.789,8.029"/>
			<path fill="none" stroke="#104892" stroke-miterlimit="10" d="M1054.573,677.146c0,0,4.074-1.122,6.633-6.883"/>
			<path fill="none" stroke="#104892" stroke-miterlimit="10" d="M1058.417,666.038c0,0,4.535,1.12,4.672,3.962"/>
			<path fill="none" stroke="#104892" stroke-miterlimit="10" d="M1070.471,668.186c0,0,1.105,8.395-5.895,10.964"/>
			<path fill="none" stroke="#104892" stroke-miterlimit="10" d="M1065.795,662.52c0,0,6.901,1.15,6.74,5.266"/>
			<path fill="none" stroke="#104892" stroke-miterlimit="10" d="M1078.359,667.785c0,0,3.111,7.632-2.244,9.64"/>
			<path fill="none" stroke="#104892" stroke-miterlimit="10" d="M1078.339,660.911c0,0,3.142,3.816,2.015,7.274"/>
			<path fill="none" stroke="#104892" stroke-miterlimit="10" d="M1086.305,670.7c0,0,1.655,3.221-2.103,4.9"/>
			<path fill="none" stroke="#104892" stroke-miterlimit="10" d="M1086.194,664.548c0,0,3.454,4.566,1.637,7.141"/>
		</g>
		<g>
			<path fill="#3E9BFF" d="M1099.701,702.762c0,0-13.061-28.142-35.125-11.545c0,0-1.297,18.594,13.763,13.458
				C1087.276,701.626,1087.95,708.172,1099.701,702.762z"/>
			<path fill="none" stroke="#104892" stroke-miterlimit="10" d="M1064.576,691.217c0,0,21.161,8.241,35.125,11.545"/>
			<path fill="none" stroke="#104892" stroke-miterlimit="10" d="M1071.896,687.133c0,0,2.149,2.734,1.784,7.471"/>
			<path fill="none" stroke="#104892" stroke-miterlimit="10" d="M1065.301,698.315c0,0,2.182,1.63,10.814-2.843"/>
			<path fill="none" stroke="#104892" stroke-miterlimit="10" d="M1078.339,685.982c0,0,4.122,7.031,3.113,11.338"/>
			<path fill="none" stroke="#104892" stroke-miterlimit="10" d="M1070.534,705.047c0,0,9.76-2.749,12.726-7.12"/>
			<path fill="none" stroke="#104892" stroke-miterlimit="10" d="M1086.668,688.217c0,0,3.99,6.612,1.163,11.192"/>
			<path fill="none" stroke="#104892" stroke-miterlimit="10" d="M1084.202,703.887c0,0,2.422,0.576,5.586-3.869"/>
			<path fill="none" stroke="#104892" stroke-miterlimit="10" d="M1092.952,693.812c0,0,1.614,5.413,0,7.151"/>
		</g>
		<g>
			<path fill="#3E9BFF" d="M1121.241,718.563c0,0,17.022-26.487,35.525,2.364c0,0-0.752,7.868-16.747,4.64
				C1124.023,722.34,1128.346,718.218,1121.241,718.563z"/>
			<path fill="none" stroke="#104892" stroke-miterlimit="10" d="M1156.767,720.928c0,0-13.874-11.346-34.937-3.205"/>
			<path fill="none" stroke="#104892" stroke-miterlimit="10" d="M1153.716,724.883c0,0-6.383-4.52-4.613-7.979"/>
			<path fill="none" stroke="#104892" stroke-miterlimit="10" d="M1141.34,715.06c0,0-0.441,10.642,5.143,11.281"/>
			<path fill="none" stroke="#104892" stroke-miterlimit="10" d="M1130.68,715.293c0,0-0.459,7.828,3.964,8.952"/>
			<path fill="none" stroke="#104892" stroke-miterlimit="10" d="M1137.928,707.462c0,0-4.516,2.076-5.557,7.598"/>
			<path fill="none" stroke="#104892" stroke-miterlimit="10" d="M1146.906,710.188c0,0-5.619,1.073-6.887,4.595"/>
			<path fill="none" stroke="#104892" stroke-miterlimit="10" d="M1151.821,714.432c0,0-3.469-0.624-4.032,2.028"/>
		</g>
		<g>
			<path fill="#3E9BFF" d="M1097.607,724.273c0,0-13.363-22.76-35.238-4.176c0,0,6.423,5.974,16.889,6.832
				C1089.725,727.787,1097.607,724.273,1097.607,724.273z"/>
			<path fill="none" stroke="#104892" stroke-miterlimit="10" d="M1062.369,720.098c0,0,24.368-3.776,35.238,4.176"/>
			<path fill="none" stroke="#104892" stroke-miterlimit="10" d="M1067.556,716.341c0,0,2.922,0.126,4.979,2.86"/>
			<path fill="none" stroke="#104892" stroke-miterlimit="10" d="M1076.115,713.049c0,0,2.785,0.879,6.482,6.497"/>
			<path fill="none" stroke="#104892" stroke-miterlimit="10" d="M1087.61,714.918c0,0,3.65,3.185,2.681,6.01"/>
			<path fill="none" stroke="#104892" stroke-miterlimit="10" d="M1066.794,723.139c0,0,6.504-0.417,8.261-3.938"/>
			<path fill="none" stroke="#104892" stroke-miterlimit="10" d="M1075.643,726.412c0,0,7.616-1.792,9.792-6.644"/>
			<path fill="none" stroke="#104892" stroke-miterlimit="10" d="M1086.599,726.87c0,0,3.987-1.768,6.078-5.166"/>
		</g>
		<path fill="#104892" d="M1061.074,742.919v25.082c0,23.811,19.302,43.112,43.112,43.112h17.884
			c23.81,0,43.111-19.302,43.111-43.112v-25.082H1061.074z"/>
		<path fill="#0E4077" d="M1061.074,759.491v8.446c0,12.123,5.004,23.072,13.05,30.915h78.008
			c8.046-7.843,13.05-18.792,13.05-30.915v-8.446H1061.074z"/>
		<path fill="#89C1FA" d="M1062.368,760.632l3.579,3.835l-3.834,3.579l-1.039-1.112v1.004c0,0.062,0.005,0.122,0.005,0.184
			l0.444,0.476l-0.422,0.394c0.009,0.359,0.01,0.721,0.027,1.078l0.945-0.882l3.579,3.835l-3.723,3.475
			c0.126,0.625,0.269,1.244,0.422,1.859l3.007,3.221l-1.566,1.462c0.102,0.271,0.217,0.534,0.323,0.803l1.794-1.675l3.579,3.835
			l-3.026,2.825c0.133,0.241,0.279,0.475,0.418,0.713l3.159-2.948l3.579,3.834l-3.799,3.547c1.312,1.732,2.75,3.366,4.304,4.881
			h0.521l3.656-3.413l3.186,3.413h2.028l3.341-3.118l2.911,3.118h1.104l-3.425-3.669l3.835-3.58l3.579,3.835l-3.657,3.414h1.183
			l3.025-2.824l2.637,2.824h1.104l-3.15-3.375l3.835-3.579l3.579,3.834l-3.342,3.12h1.183l2.71-2.53l2.361,2.53h1.104l-2.876-3.081
			l3.835-3.579l3.579,3.835l-3.026,2.825h1.183l2.395-2.235l2.087,2.235h1.104l-2.602-2.786l3.835-3.58l3.579,3.835l-2.711,2.531
			h1.183l2.079-1.941l1.812,1.941h1.104l-2.326-2.492l3.835-3.579l3.579,3.834l-2.396,2.237h1.183l1.765-1.647l1.537,1.647h1.104
			l-2.052-2.198l3.835-3.579l3.58,3.835l-2.081,1.942h1.183l1.449-1.353l1.263,1.353h1.104l-1.776-1.903l3.834-3.58l3.58,3.835
			l-1.766,1.648h1.183l1.134-1.059l0.987,1.059h1.104l-1.502-1.609l3.835-3.579l2.926,3.135c0.181-0.201,0.36-0.402,0.538-0.606
			l-2.874-3.079l3.834-3.58l2.272,2.435c0.154-0.229,0.306-0.462,0.455-0.695l-2.138-2.289l3.835-3.58l0.987,1.059
			c0.125-0.263,0.246-0.527,0.365-0.792l-0.763-0.817l1.81-1.688c0.204-0.541,0.392-1.09,0.574-1.641l-2.935,2.739l-3.579-3.835
			l3.834-3.579l3.102,3.322c0.089-0.301,0.179-0.601,0.261-0.903l-2.771-2.97l3.834-3.579l0.159,0.17
			c0.06-0.516,0.104-1.036,0.145-1.559l-0.265,0.248l-3.579-3.835l3.835-3.58l0.155,0.167v-1.416l-0.116,0.108l-3.297-3.531h-1.79
			l-3.468,3.237l-3.022-3.237h-1.104l3.536,3.788l-3.834,3.579l-3.58-3.834l3.785-3.533h-1.183l-3.153,2.943l-2.747-2.943h-1.104
			l3.261,3.494l-3.834,3.579l-3.58-3.835l3.47-3.238h-1.183l-2.838,2.648l-2.473-2.648h-1.104l2.986,3.199l-3.834,3.58l-3.58-3.835
			l3.154-2.944h-1.183l-2.522,2.354l-2.197-2.354h-1.104l2.712,2.905l-3.834,3.579l-3.58-3.834l2.839-2.65h-1.183l-2.207,2.06
			l-1.923-2.06h-1.104l2.438,2.61l-3.835,3.58l-3.579-3.835l2.523-2.355h-1.183l-1.892,1.766l-1.648-1.766h-1.104l2.163,2.316
			l-3.835,3.579l-3.579-3.834l2.208-2.062h-1.183l-1.576,1.472l-1.374-1.472h-1.104l1.889,2.022l-3.835,3.579l-3.579-3.835
			l1.893-1.767h-1.183l-1.261,1.177l-1.1-1.177h-1.104l1.613,1.728l-3.835,3.58l-3.58-3.835l1.578-1.473h-1.183l-0.945,0.883
			l-0.824-0.883h-1.104l1.338,1.434l-3.834,3.579l-3.58-3.834l1.263-1.179h-1.183l-0.63,0.589l-0.55-0.589h-1.104l1.063,1.14
			l-3.834,3.579l-3.58-3.835l0.947-0.884h-1.183l-0.315,0.294l-0.274-0.294h-1.104l0.788,0.845l-3.835,3.58l-3.579-3.835l0.632-0.59
			h-2.287l0.515,0.551l-0.743,0.693v1.104L1062.368,760.632z M1062.369,777.19l3.835-3.579l3.579,3.834l-3.834,3.58L1062.369,777.19
			z M1147.918,780.134l3.834-3.579l3.58,3.834l-3.835,3.58L1147.918,780.134z M1150.907,784.52l-3.835,3.579l-3.579-3.835
			l3.834-3.579L1150.907,784.52z M1147.367,779.544l-3.58-3.835l3.835-3.579l3.579,3.834L1147.367,779.544z M1146.777,780.095
			l-3.835,3.579l-3.579-3.834l3.834-3.58L1146.777,780.095z M1142.353,784.225l-3.835,3.58l-3.579-3.835l3.834-3.579
			L1142.353,784.225z M1138.812,779.25l-3.58-3.835l3.835-3.58l3.579,3.835L1138.812,779.25z M1138.222,779.801l-3.834,3.579
			l-3.579-3.835l3.834-3.579L1138.222,779.801z M1133.798,783.931l-3.835,3.579l-3.579-3.834l3.834-3.58L1133.798,783.931z
			 M1130.258,778.955l-3.58-3.834l3.835-3.58l3.579,3.835L1130.258,778.955z M1129.667,779.506l-3.834,3.58l-3.58-3.835l3.835-3.58
			L1129.667,779.506z M1125.243,783.636l-3.835,3.58l-3.58-3.835l3.835-3.579L1125.243,783.636z M1121.702,778.661l-3.579-3.835
			l3.834-3.579l3.58,3.834L1121.702,778.661z M1121.112,779.212l-3.835,3.579l-3.579-3.834l3.835-3.58L1121.112,779.212z
			 M1116.688,783.342l-3.834,3.58l-3.58-3.835l3.835-3.58L1116.688,783.342z M1113.147,778.366l-3.579-3.834l3.834-3.58l3.58,3.835
			L1113.147,778.366z M1112.558,778.917l-3.835,3.58l-3.579-3.835l3.835-3.579L1112.558,778.917z M1108.133,783.048l-3.834,3.579
			l-3.58-3.834l3.835-3.58L1108.133,783.048z M1104.593,778.072l-3.579-3.835l3.834-3.579l3.58,3.834L1104.593,778.072z
			 M1104.003,778.623l-3.835,3.579l-3.579-3.834l3.835-3.58L1104.003,778.623z M1099.578,782.753l-3.834,3.58l-3.58-3.835
			l3.835-3.579L1099.578,782.753z M1096.038,777.778l-3.58-3.835l3.835-3.58l3.58,3.835L1096.038,777.778z M1095.448,778.329
			l-3.835,3.579l-3.579-3.835l3.834-3.579L1095.448,778.329z M1083.02,782.755l3.579,3.834l-3.834,3.58l-3.58-3.835L1083.02,782.755
			z M1078.634,785.744l-3.579-3.835l3.834-3.579l3.58,3.834L1078.634,785.744z M1083.609,782.204l3.834-3.58l3.58,3.835
			l-3.835,3.579L1083.609,782.204z M1087.483,777.483l-3.58-3.834l3.835-3.58l3.579,3.835L1087.483,777.483z M1086.894,778.034
			l-3.835,3.58l-3.579-3.835l3.834-3.58L1086.894,778.034z M1078.929,777.189l-3.58-3.835l3.835-3.579l3.579,3.834L1078.929,777.189
			z M1078.339,777.74l-3.835,3.579l-3.58-3.834l3.835-3.58L1078.339,777.74z M1070.373,776.896l-3.579-3.835l3.835-3.58l3.579,3.835
			L1070.373,776.896z M1066.5,781.615l3.834-3.579l3.58,3.834l-3.835,3.58L1066.5,781.615z M1070.63,786.04l3.835-3.58l3.579,3.835
			l-3.835,3.579L1070.63,786.04z M1073.915,798.43l-3.579-3.835l3.834-3.58l3.58,3.835L1073.915,798.43z M1074.76,790.465
			l3.835-3.58l3.579,3.835l-3.834,3.579L1074.76,790.465z M1082.47,798.724l-3.579-3.835l3.834-3.579l3.58,3.835L1082.47,798.724z
			 M1086.895,794.594l-3.579-3.835l3.834-3.579l3.58,3.834L1086.895,794.594z M1087.739,786.629l3.835-3.58l3.58,3.835l-3.835,3.579
			L1087.739,786.629z M1095.449,794.888l-3.579-3.835l3.834-3.579l3.58,3.835L1095.449,794.888z M1096.294,786.923l3.835-3.58
			l3.58,3.835l-3.835,3.58L1096.294,786.923z M1104.004,795.182l-3.579-3.834l3.835-3.58l3.579,3.835L1104.004,795.182z
			 M1104.85,787.217l3.834-3.579l3.58,3.834l-3.835,3.58L1104.85,787.217z M1112.559,795.477l-3.579-3.835l3.835-3.579l3.579,3.834
			L1112.559,795.477z M1113.404,787.512l3.834-3.58l3.58,3.835l-3.835,3.579L1113.404,787.512z M1121.113,795.771l-3.579-3.835
			l3.835-3.579l3.579,3.835L1121.113,795.771z M1121.959,787.806l3.834-3.579l3.58,3.834l-3.835,3.58L1121.959,787.806z
			 M1129.669,796.064l-3.58-3.834l3.835-3.58l3.579,3.835L1129.669,796.064z M1130.514,788.1l3.835-3.579l3.579,3.835l-3.835,3.579
			L1130.514,788.1z M1138.224,796.359l-3.58-3.835l3.835-3.579l3.58,3.834L1138.224,796.359z M1139.068,788.395l3.835-3.58
			l3.579,3.835l-3.834,3.58L1139.068,788.395z M1146.778,796.653l-3.579-3.834l3.834-3.58l3.58,3.835L1146.778,796.653z
			 M1151.203,792.523l-3.58-3.835l3.835-3.579l3.579,3.834L1151.203,792.523z M1159.462,784.813l-3.835,3.579l-3.579-3.834
			l3.835-3.58L1159.462,784.813z M1155.922,779.838l-3.58-3.834l3.835-3.58l3.579,3.835L1155.922,779.838z M1164.181,772.128
			l-3.834,3.58l-3.58-3.835l3.835-3.579L1164.181,772.128z M1160.896,759.739l3.58,3.834l-3.835,3.58l-3.58-3.835L1160.896,759.739z
			 M1156.471,763.869l3.58,3.835l-3.835,3.579l-3.579-3.835L1156.471,763.869z M1155.626,771.834l-3.835,3.58l-3.579-3.835
			l3.835-3.58L1155.626,771.834z M1147.916,763.575l3.58,3.834l-3.835,3.58l-3.579-3.835L1147.916,763.575z M1147.071,771.54
			l-3.835,3.579l-3.579-3.834l3.835-3.58L1147.071,771.54z M1139.361,763.28l3.58,3.835l-3.835,3.579l-3.579-3.834L1139.361,763.28z
			 M1138.517,771.245l-3.835,3.58l-3.579-3.835l3.834-3.579L1138.517,771.245z M1130.807,762.986l3.58,3.835l-3.835,3.579
			l-3.58-3.835L1130.807,762.986z M1129.962,770.951l-3.835,3.579l-3.579-3.834l3.834-3.58L1129.962,770.951z M1122.252,762.691
			l3.579,3.835l-3.834,3.58l-3.58-3.835L1122.252,762.691z M1121.406,770.657l-3.834,3.579l-3.58-3.835l3.835-3.579
			L1121.406,770.657z M1113.697,762.397l3.579,3.835l-3.834,3.579l-3.58-3.834L1113.697,762.397z M1112.852,770.362l-3.834,3.58
			l-3.58-3.835l3.835-3.579L1112.852,770.362z M1105.143,762.104l3.579,3.835l-3.835,3.579l-3.579-3.835L1105.143,762.104z
			 M1104.297,770.068l-3.834,3.579l-3.58-3.834l3.835-3.58L1104.297,770.068z M1096.588,761.809l3.579,3.835l-3.835,3.58
			l-3.579-3.835L1096.588,761.809z M1095.742,769.773l-3.834,3.58l-3.58-3.835l3.835-3.579L1095.742,769.773z M1088.032,761.515
			l3.58,3.835l-3.835,3.579l-3.579-3.834L1088.032,761.515z M1087.188,769.479l-3.835,3.579l-3.579-3.834l3.835-3.58
			L1087.188,769.479z M1079.478,761.221l3.58,3.834l-3.835,3.58l-3.58-3.835L1079.478,761.221z M1078.633,769.186l-3.835,3.579
			l-3.579-3.835l3.834-3.579L1078.633,769.186z M1070.923,760.926l3.579,3.835l-3.834,3.579l-3.58-3.834L1070.923,760.926z
			 M1070.078,768.891l-3.835,3.58l-3.579-3.835l3.834-3.579L1070.078,768.891z"/>
	</g>
</g>
</svg>
